<?xml version="1.0" encoding="utf-8"?>
<!-- Generator: Adobe Illustrator 22.0.0, SVG Export Plug-In . SVG Version: 6.00 Build 0)  -->
<svg version="1.1" xmlns="http://www.w3.org/2000/svg" xmlns:xlink="http://www.w3.org/1999/xlink" x="0px" y="0px"
	 viewBox="0 0 64 64" style="enable-background:new 0 0 64 64;" xml:space="preserve">
<g id="Layer_1">
</g>
<g id="Layer_2">
	<g>
		<path d="M32,36c4.1,0,7.5-3.4,7.5-7.5s-3.4-7.5-7.5-7.5s-7.5,3.4-7.5,7.5S27.9,36,32,36z M32,23c3,0,5.5,2.5,5.5,5.5
			c0,3-2.5,5.5-5.5,5.5c-3,0-5.5-2.5-5.5-5.5C26.5,25.5,29,23,32,23z"/>
		<path d="M51.8,32c0-10.9-8.9-19.8-19.8-19.8C21.1,12.1,12.2,21,12.2,32c0,5.6,2.3,10.9,6.4,14.6l0,0.1l0.6,0.5
			c3.6,3.1,8.2,4.7,12.9,4.7c4.7,0,9.3-1.7,12.9-4.7l0.6-0.5l0-0.1C49.5,42.8,51.8,37.5,51.8,32z M14.1,32c0-9.9,8-17.9,17.9-17.9
			c9.9,0,17.9,8,17.9,17.9c0,4.8-1.9,9.3-5.3,12.6c-2.3-4.7-7.2-7.9-12.6-7.9c-5.4,0-10.3,3.1-12.6,7.9C16,41.3,14.1,36.7,14.1,32z
			 M32,49.8c-4,0-7.8-1.3-10.9-3.8c1.9-4.3,6.2-7.1,10.9-7.1c4.7,0,9.1,2.8,10.9,7.1C39.8,48.4,36,49.8,32,49.8z"/>
	</g>
</g>
</svg>
