<svg width="256" height="256" version="1.1" xmlns="http://www.w3.org/2000/svg" desc="Created with imagetracer.js version 1.2.6" ><path fill="rgb(0,0,0)" stroke="rgb(0,0,0)" stroke-width="1" opacity="0" d="M 0 0 L 49 0.5 L 44 4.5 L 42 9.5 L 42 32 L 25.5 32 Q 24.75 33.75 21.5 33 Q 11.82 36.82 6 44.5 L 1 53.5 L 0.5 57 L 0 0 Z " /><path fill="rgb(0,0,0)" stroke="rgb(0,0,0)" stroke-width="1" opacity="0" d="M 68.5 0 L 188 0.5 L 182 5.5 L 181 8.5 L 181 32 L 75.5 32 L 75 31.5 L 75 8.5 L 74 5.5 L 69.5 1 Q 67.13 0.87 68.5 0 Z " /><path fill="rgb(0,0,0)" stroke="rgb(0,0,0)" stroke-width="1" opacity="0" d="M 207.5 0 L 256 0 L 256 56.5 L 255 56.5 L 255 53.5 L 252 47.5 L 243.5 38 L 234.5 33 Q 231.25 33.75 230.5 32 L 214 32 L 214 9.5 L 212 4.5 L 208.5 1 Q 206.13 0.87 207.5 0 Z " /><path fill="rgb(0,0,0)" stroke="rgb(0,0,0)" stroke-width="1" opacity="0" d="M 22 107 L 234 107 L 234 227.5 L 229.5 233 L 227.5 234 L 28.5 234 L 23 229.5 L 22 227.5 L 22 107 Z M 178 130 L 173 132 L 119 186 L 99 159 L 92 152 Q 85 151 83 153 L 78 158 L 77 161 L 77 166 L 79 170 L 107 208 L 112 212 L 117 214 L 124 212 L 188 148 L 190 143 L 188 136 Q 185 131 178 130 Z " /><path fill="rgb(0,0,0)" stroke="rgb(0,0,0)" stroke-width="1" opacity="0" d="M 0.5 231 Q 3.35 243.65 12.5 250 L 21.5 255 L 25 255.5 L 0 256 L 0.5 231 Z " /><path fill="rgb(0,0,0)" stroke="rgb(0,0,0)" stroke-width="1" opacity="0" d="M 255.5 231 L 256 256 L 231 255.5 Q 243.65 252.65 250 243.5 L 255 234.5 L 255.5 231 Z " /><path fill="rgb(0,0,0)" stroke="rgb(0,0,0)" stroke-width="1" opacity="0.9254901960784314" d="M 51.5 0 L 53 0.5 L 51.5 1 L 51.5 0 Z " /><path fill="rgb(0,0,0)" stroke="rgb(0,0,0)" stroke-width="1" opacity="0.9254901960784314" d="M 64.5 0 L 66 0.5 L 64.5 1 L 64.5 0 Z " /><path fill="rgb(0,0,0)" stroke="rgb(0,0,0)" stroke-width="1" opacity="0.9254901960784314" d="M 190.5 0 L 192 0.5 L 190.5 1 L 190.5 0 Z " /><path fill="rgb(0,0,0)" stroke="rgb(0,0,0)" stroke-width="1" opacity="0.9254901960784314" d="M 203.5 0 L 205 0.5 L 203.5 1 L 203.5 0 Z " /><path fill="rgb(0,0,0)" stroke="rgb(0,0,0)" stroke-width="1" opacity="0.9254901960784314" d="M 48.5 1 L 48.5 2 L 48.5 1 Z " /><path fill="rgb(0,0,0)" stroke="rgb(0,0,0)" stroke-width="1" opacity="0.9254901960784314" d="M 68.5 1 L 68.5 2 L 68.5 1 Z " /><path fill="rgb(0,0,0)" stroke="rgb(0,0,0)" stroke-width="1" opacity="0.9254901960784314" d="M 187.5 1 L 187.5 2 L 187.5 1 Z " /><path fill="rgb(0,0,0)" stroke="rgb(0,0,0)" stroke-width="1" opacity="0.9254901960784314" d="M 207.5 1 L 207.5 2 L 207.5 1 Z " /><path fill="rgb(0,0,0)" stroke="rgb(0,0,0)" stroke-width="1" opacity="0.9254901960784314" d="M 71.5 3 L 71.5 4 L 71.5 3 Z " /><path fill="rgb(0,0,0)" stroke="rgb(0,0,0)" stroke-width="1" opacity="0.9254901960784314" d="M 184.5 3 L 184.5 4 L 184.5 3 Z " /><path fill="rgb(0,0,0)" stroke="rgb(0,0,0)" stroke-width="1" opacity="0.9254901960784314" d="M 44.5 5 L 44.5 6 L 44.5 5 Z " /><path fill="rgb(0,0,0)" stroke="rgb(0,0,0)" stroke-width="1" opacity="0.9254901960784314" d="M 211.5 5 L 211.5 6 L 211.5 5 Z " /><path fill="rgb(0,0,0)" stroke="rgb(0,0,0)" stroke-width="1" opacity="0.9254901960784314" d="M 73.5 6 L 73.5 7 L 73.5 6 Z " /><path fill="rgb(0,0,0)" stroke="rgb(0,0,0)" stroke-width="1" opacity="0.9254901960784314" d="M 182.5 6 L 182.5 7 L 182.5 6 Z " /><path fill="rgb(0,0,0)" stroke="rgb(0,0,0)" stroke-width="1" opacity="0.9254901960784314" d="M 43.5 7 L 43.5 8 L 43.5 7 Z " /><path fill="rgb(0,0,0)" stroke="rgb(0,0,0)" stroke-width="1" opacity="0.9254901960784314" d="M 212.5 7 L 212.5 8 L 212.5 7 Z " /><path fill="rgb(0,0,0)" stroke="rgb(0,0,0)" stroke-width="1" opacity="0.9254901960784314" d="M 28.5 32 L 31 32.5 L 28.5 33 L 28.5 32 Z " /><path fill="rgb(0,0,0)" stroke="rgb(0,0,0)" stroke-width="1" opacity="0.9254901960784314" d="M 225.5 32 L 228 32.5 L 225.5 33 L 225.5 32 Z " /><path fill="rgb(0,0,0)" stroke="rgb(0,0,0)" stroke-width="1" opacity="0.9254901960784314" d="M 23.5 33 L 23.5 34 L 23.5 33 Z " /><path fill="rgb(0,0,0)" stroke="rgb(0,0,0)" stroke-width="1" opacity="0.9254901960784314" d="M 232.5 33 L 232.5 34 L 232.5 33 Z " /><path fill="rgb(0,0,0)" stroke="rgb(0,0,0)" stroke-width="1" opacity="0.9254901960784314" d="M 20.5 34 L 20.5 35 L 20.5 34 Z " /><path fill="rgb(0,0,0)" stroke="rgb(0,0,0)" stroke-width="1" opacity="0.9254901960784314" d="M 235.5 34 L 235.5 35 L 235.5 34 Z " /><path fill="rgb(0,0,0)" stroke="rgb(0,0,0)" stroke-width="1" opacity="0.9254901960784314" d="M 18.5 35 L 18.5 36 L 18.5 35 Z " /><path fill="rgb(0,0,0)" stroke="rgb(0,0,0)" stroke-width="1" opacity="0.9254901960784314" d="M 237.5 35 L 237.5 36 L 237.5 35 Z " /><path fill="rgb(0,0,0)" stroke="rgb(0,0,0)" stroke-width="1" opacity="0.9254901960784314" d="M 16.5 36 L 16.5 37 L 16.5 36 Z " /><path fill="rgb(0,0,0)" stroke="rgb(0,0,0)" stroke-width="1" opacity="0.9254901960784314" d="M 239.5 36 L 239.5 37 L 239.5 36 Z " /><path fill="rgb(0,0,0)" stroke="rgb(0,0,0)" stroke-width="1" opacity="0.9254901960784314" d="M 13.5 38 L 13.5 39 L 13.5 38 Z " /><path fill="rgb(0,0,0)" stroke="rgb(0,0,0)" stroke-width="1" opacity="0.9254901960784314" d="M 242.5 38 L 242.5 39 L 242.5 38 Z " /><path fill="rgb(0,0,0)" stroke="rgb(0,0,0)" stroke-width="1" opacity="0.9254901960784314" d="M 6.5 45 L 6.5 46 L 6.5 45 Z " /><path fill="rgb(0,0,0)" stroke="rgb(0,0,0)" stroke-width="1" opacity="0.9254901960784314" d="M 249.5 45 L 249.5 46 L 249.5 45 Z " /><path fill="rgb(0,0,0)" stroke="rgb(0,0,0)" stroke-width="1" opacity="0.9254901960784314" d="M 4.5 48 L 4.5 49 L 4.5 48 Z " /><path fill="rgb(0,0,0)" stroke="rgb(0,0,0)" stroke-width="1" opacity="0.9254901960784314" d="M 251.5 48 L 251.5 49 L 251.5 48 Z " /><path fill="rgb(0,0,0)" stroke="rgb(0,0,0)" stroke-width="1" opacity="0.9254901960784314" d="M 3.5 50 L 3.5 51 L 3.5 50 Z " /><path fill="rgb(0,0,0)" stroke="rgb(0,0,0)" stroke-width="1" opacity="0.9254901960784314" d="M 252.5 50 L 252.5 51 L 252.5 50 Z " /><path fill="rgb(0,0,0)" stroke="rgb(0,0,0)" stroke-width="1" opacity="0.9254901960784314" d="M 2.5 52 L 2.5 53 L 2.5 52 Z " /><path fill="rgb(0,0,0)" stroke="rgb(0,0,0)" stroke-width="1" opacity="0.9254901960784314" d="M 253.5 52 L 253.5 53 L 253.5 52 Z " /><path fill="rgb(0,0,0)" stroke="rgb(0,0,0)" stroke-width="1" opacity="0.9254901960784314" d="M 1.5 55 L 1.5 56 L 1.5 55 Z " /><path fill="rgb(0,0,0)" stroke="rgb(0,0,0)" stroke-width="1" opacity="0.9254901960784314" d="M 254.5 55 L 254.5 56 L 254.5 55 Z " /><path fill="rgb(0,0,0)" stroke="rgb(0,0,0)" stroke-width="1" opacity="0.9254901960784314" d="M 0.5 60 L 1 62.5 L 0 62.5 L 0.5 60 Z " /><path fill="rgb(0,0,0)" stroke="rgb(0,0,0)" stroke-width="1" opacity="0.9254901960784314" d="M 255.5 60 L 256 62.5 L 255 62.5 L 255.5 60 Z " /><path fill="rgb(0,0,0)" stroke="rgb(0,0,0)" stroke-width="1" opacity="0.9254901960784314" d="M 175.5 131 L 175.5 132 L 175.5 131 Z " /><path fill="rgb(0,0,0)" stroke="rgb(0,0,0)" stroke-width="1" opacity="0.9254901960784314" d="M 181.5 131 L 181.5 132 L 181.5 131 Z " /><path fill="rgb(0,0,0)" stroke="rgb(0,0,0)" stroke-width="1" opacity="0.9254901960784314" d="M 173.5 132 L 173.5 133 L 173.5 132 Z " /><path fill="rgb(0,0,0)" stroke="rgb(0,0,0)" stroke-width="1" opacity="0.9254901960784314" d="M 188.5 138 L 188.5 139 L 188.5 138 Z " /><path fill="rgb(0,0,0)" stroke="rgb(0,0,0)" stroke-width="1" opacity="0.9254901960784314" d="M 188.5 144 L 188.5 145 L 188.5 144 Z " /><path fill="rgb(0,0,0)" stroke="rgb(0,0,0)" stroke-width="1" opacity="0.9254901960784314" d="M 187.5 146 L 187.5 147 L 187.5 146 Z " /><path fill="rgb(0,0,0)" stroke="rgb(0,0,0)" stroke-width="1" opacity="0.9254901960784314" d="M 86.5 152 L 86.5 153 L 86.5 152 Z " /><path fill="rgb(0,0,0)" stroke="rgb(0,0,0)" stroke-width="1" opacity="0.9254901960784314" d="M 88.5 152 L 90 152.5 L 88.5 153 L 88.5 152 Z " /><path fill="rgb(0,0,0)" stroke="rgb(0,0,0)" stroke-width="1" opacity="0.9254901960784314" d="M 83.5 153 L 83.5 154 L 83.5 153 Z " /><path fill="rgb(0,0,0)" stroke="rgb(0,0,0)" stroke-width="1" opacity="0.9254901960784314" d="M 92.5 153 L 92.5 154 L 92.5 153 Z " /><path fill="rgb(0,0,0)" stroke="rgb(0,0,0)" stroke-width="1" opacity="0.9254901960784314" d="M 80.5 155 L 80.5 156 L 80.5 155 Z " /><path fill="rgb(0,0,0)" stroke="rgb(0,0,0)" stroke-width="1" opacity="0.9254901960784314" d="M 95.5 155 L 95.5 156 L 95.5 155 Z " /><path fill="rgb(0,0,0)" stroke="rgb(0,0,0)" stroke-width="1" opacity="0.9254901960784314" d="M 78.5 158 L 78.5 159 L 78.5 158 Z " /><path fill="rgb(0,0,0)" stroke="rgb(0,0,0)" stroke-width="1" opacity="0.9254901960784314" d="M 98.5 159 L 98.5 160 L 98.5 159 Z " /><path fill="rgb(0,0,0)" stroke="rgb(0,0,0)" stroke-width="1" opacity="0.9254901960784314" d="M 100.5 162 Q 103 163 101.5 164 Q 99 163 100.5 162 Z " /><path fill="rgb(0,0,0)" stroke="rgb(0,0,0)" stroke-width="1" opacity="0.9254901960784314" d="M 78.5 166 L 78.5 167 L 78.5 166 Z " /><path fill="rgb(0,0,0)" stroke="rgb(0,0,0)" stroke-width="1" opacity="0.9254901960784314" d="M 103.5 166 L 103.5 167 L 103.5 166 Z " /><path fill="rgb(0,0,0)" stroke="rgb(0,0,0)" stroke-width="1" opacity="0.9254901960784314" d="M 79.5 168 L 79.5 169 L 79.5 168 Z " /><path fill="rgb(0,0,0)" stroke="rgb(0,0,0)" stroke-width="1" opacity="0.9254901960784314" d="M 106.5 170 L 106.5 171 L 106.5 170 Z " /><path fill="rgb(0,0,0)" stroke="rgb(0,0,0)" stroke-width="1" opacity="0.9254901960784314" d="M 82.5 172 L 82.5 173 L 82.5 172 Z " /><path fill="rgb(0,0,0)" stroke="rgb(0,0,0)" stroke-width="1" opacity="0.9254901960784314" d="M 109.5 174 L 109.5 175 L 109.5 174 Z " /><path fill="rgb(0,0,0)" stroke="rgb(0,0,0)" stroke-width="1" opacity="0.9254901960784314" d="M 84.5 175 Q 87 176 85.5 177 Q 83 176 84.5 175 Z " /><path fill="rgb(0,0,0)" stroke="rgb(0,0,0)" stroke-width="1" opacity="0.9254901960784314" d="M 111.5 177 Q 114 178 112.5 179 Q 110 178 111.5 177 Z " /><path fill="rgb(0,0,0)" stroke="rgb(0,0,0)" stroke-width="1" opacity="0.9254901960784314" d="M 87.5 179 L 87.5 180 L 87.5 179 Z " /><path fill="rgb(0,0,0)" stroke="rgb(0,0,0)" stroke-width="1" opacity="0.9254901960784314" d="M 114.5 181 L 114.5 182 L 114.5 181 Z " /><path fill="rgb(0,0,0)" stroke="rgb(0,0,0)" stroke-width="1" opacity="0.9254901960784314" d="M 90.5 183 L 90.5 184 L 90.5 183 Z " /><path fill="rgb(0,0,0)" stroke="rgb(0,0,0)" stroke-width="1" opacity="0.9254901960784314" d="M 117.5 185 Q 120 186 118.5 187 Q 116 186 117.5 185 Z " /><path fill="rgb(0,0,0)" stroke="rgb(0,0,0)" stroke-width="1" opacity="0.9254901960784314" d="M 93.5 187 L 93.5 188 L 93.5 187 Z " /><path fill="rgb(0,0,0)" stroke="rgb(0,0,0)" stroke-width="1" opacity="0.9254901960784314" d="M 95.5 190 Q 98 191 96.5 192 Q 94 191 95.5 190 Z " /><path fill="rgb(0,0,0)" stroke="rgb(0,0,0)" stroke-width="1" opacity="0.9254901960784314" d="M 98.5 194 L 98.5 195 L 98.5 194 Z " /><path fill="rgb(0,0,0)" stroke="rgb(0,0,0)" stroke-width="1" opacity="0.9254901960784314" d="M 101.5 198 L 101.5 199 L 101.5 198 Z " /><path fill="rgb(0,0,0)" stroke="rgb(0,0,0)" stroke-width="1" opacity="0.9254901960784314" d="M 104.5 202 L 104.5 203 L 104.5 202 Z " /><path fill="rgb(0,0,0)" stroke="rgb(0,0,0)" stroke-width="1" opacity="0.9254901960784314" d="M 106.5 205 Q 109 206 107.5 207 Q 105 206 106.5 205 Z " /><path fill="rgb(0,0,0)" stroke="rgb(0,0,0)" stroke-width="1" opacity="0.9254901960784314" d="M 110.5 210 L 110.5 211 L 110.5 210 Z " /><path fill="rgb(0,0,0)" stroke="rgb(0,0,0)" stroke-width="1" opacity="0.9254901960784314" d="M 122.5 211 L 122.5 212 L 122.5 211 Z " /><path fill="rgb(0,0,0)" stroke="rgb(0,0,0)" stroke-width="1" opacity="0.9254901960784314" d="M 114.5 212 L 114.5 213 L 114.5 212 Z " /><path fill="rgb(0,0,0)" stroke="rgb(0,0,0)" stroke-width="1" opacity="0.9254901960784314" d="M 120.5 212 L 120.5 213 L 120.5 212 Z " /><path fill="rgb(0,0,0)" stroke="rgb(0,0,0)" stroke-width="1" opacity="0.9254901960784314" d="M 0.5 225 L 1 227.5 L 0 227.5 L 0.5 225 Z " /><path fill="rgb(0,0,0)" stroke="rgb(0,0,0)" stroke-width="1" opacity="0.9254901960784314" d="M 255.5 225 L 256 227.5 L 255 227.5 L 255.5 225 Z " /><path fill="rgb(0,0,0)" stroke="rgb(0,0,0)" stroke-width="1" opacity="0.9254901960784314" d="M 21.5 227 L 21.5 228 L 21.5 227 Z " /><path fill="rgb(0,0,0)" stroke="rgb(0,0,0)" stroke-width="1" opacity="0.9254901960784314" d="M 234.5 227 L 234.5 228 L 234.5 227 Z " /><path fill="rgb(0,0,0)" stroke="rgb(0,0,0)" stroke-width="1" opacity="0.9254901960784314" d="M 22.5 229 L 22.5 230 L 22.5 229 Z " /><path fill="rgb(0,0,0)" stroke="rgb(0,0,0)" stroke-width="1" opacity="0.9254901960784314" d="M 233.5 229 L 233.5 230 L 233.5 229 Z " /><path fill="rgb(0,0,0)" stroke="rgb(0,0,0)" stroke-width="1" opacity="0.9254901960784314" d="M 1.5 232 L 1.5 233 L 1.5 232 Z " /><path fill="rgb(0,0,0)" stroke="rgb(0,0,0)" stroke-width="1" opacity="0.9254901960784314" d="M 254.5 232 L 254.5 233 L 254.5 232 Z " /><path fill="rgb(0,0,0)" stroke="rgb(0,0,0)" stroke-width="1" opacity="0.9254901960784314" d="M 26.5 233 L 26.5 234 L 26.5 233 Z " /><path fill="rgb(0,0,0)" stroke="rgb(0,0,0)" stroke-width="1" opacity="0.9254901960784314" d="M 229.5 233 L 229.5 234 L 229.5 233 Z " /><path fill="rgb(0,0,0)" stroke="rgb(0,0,0)" stroke-width="1" opacity="0.9254901960784314" d="M 28.5 234 L 28.5 235 L 28.5 234 Z " /><path fill="rgb(0,0,0)" stroke="rgb(0,0,0)" stroke-width="1" opacity="0.9254901960784314" d="M 227.5 234 L 227.5 235 L 227.5 234 Z " /><path fill="rgb(0,0,0)" stroke="rgb(0,0,0)" stroke-width="1" opacity="0.9254901960784314" d="M 2.5 235 L 2.5 236 L 2.5 235 Z " /><path fill="rgb(0,0,0)" stroke="rgb(0,0,0)" stroke-width="1" opacity="0.9254901960784314" d="M 253.5 235 L 253.5 236 L 253.5 235 Z " /><path fill="rgb(0,0,0)" stroke="rgb(0,0,0)" stroke-width="1" opacity="0.9254901960784314" d="M 3.5 237 L 3.5 238 L 3.5 237 Z " /><path fill="rgb(0,0,0)" stroke="rgb(0,0,0)" stroke-width="1" opacity="0.9254901960784314" d="M 252.5 237 L 252.5 238 L 252.5 237 Z " /><path fill="rgb(0,0,0)" stroke="rgb(0,0,0)" stroke-width="1" opacity="0.9254901960784314" d="M 4.5 239 L 4.5 240 L 4.5 239 Z " /><path fill="rgb(0,0,0)" stroke="rgb(0,0,0)" stroke-width="1" opacity="0.9254901960784314" d="M 251.5 239 L 251.5 240 L 251.5 239 Z " /><path fill="rgb(0,0,0)" stroke="rgb(0,0,0)" stroke-width="1" opacity="0.9254901960784314" d="M 6.5 242 L 6.5 243 L 6.5 242 Z " /><path fill="rgb(0,0,0)" stroke="rgb(0,0,0)" stroke-width="1" opacity="0.9254901960784314" d="M 249.5 242 L 249.5 243 L 249.5 242 Z " /><path fill="rgb(0,0,0)" stroke="rgb(0,0,0)" stroke-width="1" opacity="0.9254901960784314" d="M 13.5 249 L 13.5 250 L 13.5 249 Z " /><path fill="rgb(0,0,0)" stroke="rgb(0,0,0)" stroke-width="1" opacity="0.9254901960784314" d="M 242.5 249 L 242.5 250 L 242.5 249 Z " /><path fill="rgb(0,0,0)" stroke="rgb(0,0,0)" stroke-width="1" opacity="0.9254901960784314" d="M 16.5 251 L 16.5 252 L 16.5 251 Z " /><path fill="rgb(0,0,0)" stroke="rgb(0,0,0)" stroke-width="1" opacity="0.9254901960784314" d="M 239.5 251 L 239.5 252 L 239.5 251 Z " /><path fill="rgb(0,0,0)" stroke="rgb(0,0,0)" stroke-width="1" opacity="0.9254901960784314" d="M 18.5 252 L 18.5 253 L 18.5 252 Z " /><path fill="rgb(0,0,0)" stroke="rgb(0,0,0)" stroke-width="1" opacity="0.9254901960784314" d="M 237.5 252 L 237.5 253 L 237.5 252 Z " /><path fill="rgb(0,0,0)" stroke="rgb(0,0,0)" stroke-width="1" opacity="0.9254901960784314" d="M 20.5 253 L 20.5 254 L 20.5 253 Z " /><path fill="rgb(0,0,0)" stroke="rgb(0,0,0)" stroke-width="1" opacity="0.9254901960784314" d="M 235.5 253 L 235.5 254 L 235.5 253 Z " /><path fill="rgb(0,0,0)" stroke="rgb(0,0,0)" stroke-width="1" opacity="0.9254901960784314" d="M 23.5 254 L 23.5 255 L 23.5 254 Z " /><path fill="rgb(0,0,0)" stroke="rgb(0,0,0)" stroke-width="1" opacity="0.9254901960784314" d="M 232.5 254 L 232.5 255 L 232.5 254 Z " /><path fill="rgb(0,0,0)" stroke="rgb(0,0,0)" stroke-width="1" opacity="0.9254901960784314" d="M 28.5 255 L 31 255.5 L 28.5 256 L 28.5 255 Z " /><path fill="rgb(0,0,0)" stroke="rgb(0,0,0)" stroke-width="1" opacity="0.9254901960784314" d="M 225.5 255 L 228 255.5 L 225.5 256 L 225.5 255 Z " /><path fill="rgb(0,0,0)" stroke="rgb(0,0,0)" stroke-width="1" opacity="1" d="M 53.5 0 L 63.5 0 Q 64.25 1.75 67.5 1 L 73 5.5 L 74 7.5 L 74 32 L 181.5 32 L 182 31.5 L 182 7.5 L 186.5 2 L 192.5 0 L 202.5 0 L 208.5 2 L 211 4.5 L 213 8.5 L 213 32 L 224.5 32 L 225.5 33 L 231.5 33 L 234.5 34 Q 243.54 37.46 249 44.5 L 254 53.5 L 255 56.5 L 255 62.5 L 256 63.5 L 256 224.5 L 255 225.5 L 255 231.5 L 251 240.5 L 243.5 249 L 234.5 254 L 231.5 255 L 225.5 255 L 224.5 256 L 31.5 256 L 30.5 255 L 24.5 255 L 15.5 251 L 7 243.5 L 2 234.5 L 1 231.5 L 1 225.5 L 0 224.5 L 0 63.5 L 1 62.5 L 1 56.5 L 5 47.5 L 12.5 39 L 24.5 33 L 30.5 33 L 31.5 32 L 43 32 L 43 8.5 L 47.5 2 L 53.5 0 Z M 21 107 L 21 228 L 22 230 L 29 235 L 228 235 L 230 234 L 235 228 L 235 107 L 21 107 Z " /><path fill="rgb(0,0,0)" stroke="rgb(0,0,0)" stroke-width="1" opacity="1" d="M 176.5 131 L 183.5 132 L 188 136.5 L 189 143.5 L 187 147.5 L 123.5 211 L 119.5 213 L 115.5 213 L 112.5 212 L 108 207.5 L 80 169.5 L 78 165.5 L 78 159.5 L 82.5 154 L 87.5 152 L 93.5 154 L 98 158.5 L 100 162.5 L 118.5 187 L 172.5 133 L 176.5 131 Z " /><path fill="rgb(0,0,0)" stroke="rgb(0,0,0)" stroke-width="1" opacity="0.3333333333333333" d="M 49.5 0 L 49.5 1 L 49.5 0 Z " /><path fill="rgb(0,0,0)" stroke="rgb(0,0,0)" stroke-width="1" opacity="0.3333333333333333" d="M 67.5 0 L 67.5 1 L 67.5 0 Z " /><path fill="rgb(0,0,0)" stroke="rgb(0,0,0)" stroke-width="1" opacity="0.3333333333333333" d="M 188.5 0 L 188.5 1 L 188.5 0 Z " /><path fill="rgb(0,0,0)" stroke="rgb(0,0,0)" stroke-width="1" opacity="0.3333333333333333" d="M 206.5 0 L 206.5 1 L 206.5 0 Z " /><path fill="rgb(0,0,0)" stroke="rgb(0,0,0)" stroke-width="1" opacity="0.3333333333333333" d="M 47.5 1 Q 49 2 46.5 3 Q 45 2 47.5 1 Z " /><path fill="rgb(0,0,0)" stroke="rgb(0,0,0)" stroke-width="1" opacity="0.3333333333333333" d="M 69.5 1 L 69.5 2 L 69.5 1 Z " /><path fill="rgb(0,0,0)" stroke="rgb(0,0,0)" stroke-width="1" opacity="0.3333333333333333" d="M 186.5 1 L 186.5 2 L 186.5 1 Z " /><path fill="rgb(0,0,0)" stroke="rgb(0,0,0)" stroke-width="1" opacity="0.3333333333333333" d="M 208.5 1 L 208.5 2 L 208.5 1 Z " /><path fill="rgb(0,0,0)" stroke="rgb(0,0,0)" stroke-width="1" opacity="0.3333333333333333" d="M 44.5 4 L 44.5 5 L 44.5 4 Z " /><path fill="rgb(0,0,0)" stroke="rgb(0,0,0)" stroke-width="1" opacity="0.3333333333333333" d="M 211.5 4 L 211.5 5 L 211.5 4 Z " /><path fill="rgb(0,0,0)" stroke="rgb(0,0,0)" stroke-width="1" opacity="0.3333333333333333" d="M 73.5 5 L 73.5 6 L 73.5 5 Z " /><path fill="rgb(0,0,0)" stroke="rgb(0,0,0)" stroke-width="1" opacity="0.3333333333333333" d="M 182.5 5 L 182.5 6 L 182.5 5 Z " /><path fill="rgb(0,0,0)" stroke="rgb(0,0,0)" stroke-width="1" opacity="0.3333333333333333" d="M 43.5 6 L 43.5 7 L 43.5 6 Z " /><path fill="rgb(0,0,0)" stroke="rgb(0,0,0)" stroke-width="1" opacity="0.3333333333333333" d="M 212.5 6 L 212.5 7 L 212.5 6 Z " /><path fill="rgb(0,0,0)" stroke="rgb(0,0,0)" stroke-width="1" opacity="0.3333333333333333" d="M 74.5 8 L 74.5 9 L 74.5 8 Z " /><path fill="rgb(0,0,0)" stroke="rgb(0,0,0)" stroke-width="1" opacity="0.3333333333333333" d="M 181.5 8 L 181.5 9 L 181.5 8 Z " /><path fill="rgb(0,0,0)" stroke="rgb(0,0,0)" stroke-width="1" opacity="0.3333333333333333" d="M 42.5 9 L 43 31.5 L 42 31.5 L 42.5 9 Z " /><path fill="rgb(0,0,0)" stroke="rgb(0,0,0)" stroke-width="1" opacity="0.3333333333333333" d="M 213.5 9 L 214 31.5 L 213 31.5 L 213.5 9 Z " /><path fill="rgb(0,0,0)" stroke="rgb(0,0,0)" stroke-width="1" opacity="0.3333333333333333" d="M 25.5 32 L 25.5 33 L 25.5 32 Z " /><path fill="rgb(0,0,0)" stroke="rgb(0,0,0)" stroke-width="1" opacity="0.3333333333333333" d="M 230.5 32 L 230.5 33 L 230.5 32 Z " /><path fill="rgb(0,0,0)" stroke="rgb(0,0,0)" stroke-width="1" opacity="0.3333333333333333" d="M 21.5 33 L 21.5 34 L 21.5 33 Z " /><path fill="rgb(0,0,0)" stroke="rgb(0,0,0)" stroke-width="1" opacity="0.3333333333333333" d="M 234.5 33 L 234.5 34 L 234.5 33 Z " /><path fill="rgb(0,0,0)" stroke="rgb(0,0,0)" stroke-width="1" opacity="0.3333333333333333" d="M 19.5 34 L 19.5 35 L 19.5 34 Z " /><path fill="rgb(0,0,0)" stroke="rgb(0,0,0)" stroke-width="1" opacity="0.3333333333333333" d="M 236.5 34 L 236.5 35 L 236.5 34 Z " /><path fill="rgb(0,0,0)" stroke="rgb(0,0,0)" stroke-width="1" opacity="0.3333333333333333" d="M 15.5 36 L 15.5 37 L 15.5 36 Z " /><path fill="rgb(0,0,0)" stroke="rgb(0,0,0)" stroke-width="1" opacity="0.3333333333333333" d="M 240.5 36 L 240.5 37 L 240.5 36 Z " /><path fill="rgb(0,0,0)" stroke="rgb(0,0,0)" stroke-width="1" opacity="0.3333333333333333" d="M 12.5 38 L 12.5 39 L 12.5 38 Z " /><path fill="rgb(0,0,0)" stroke="rgb(0,0,0)" stroke-width="1" opacity="0.3333333333333333" d="M 243.5 38 L 243.5 39 L 243.5 38 Z " /><path fill="rgb(0,0,0)" stroke="rgb(0,0,0)" stroke-width="1" opacity="0.3333333333333333" d="M 6.5 44 L 6.5 45 L 6.5 44 Z " /><path fill="rgb(0,0,0)" stroke="rgb(0,0,0)" stroke-width="1" opacity="0.3333333333333333" d="M 249.5 44 L 249.5 45 L 249.5 44 Z " /><path fill="rgb(0,0,0)" stroke="rgb(0,0,0)" stroke-width="1" opacity="0.3333333333333333" d="M 4.5 47 L 4.5 48 L 4.5 47 Z " /><path fill="rgb(0,0,0)" stroke="rgb(0,0,0)" stroke-width="1" opacity="0.3333333333333333" d="M 251.5 47 L 251.5 48 L 251.5 47 Z " /><path fill="rgb(0,0,0)" stroke="rgb(0,0,0)" stroke-width="1" opacity="0.3333333333333333" d="M 2.5 51 L 2.5 52 L 2.5 51 Z " /><path fill="rgb(0,0,0)" stroke="rgb(0,0,0)" stroke-width="1" opacity="0.3333333333333333" d="M 253.5 51 L 253.5 52 L 253.5 51 Z " /><path fill="rgb(0,0,0)" stroke="rgb(0,0,0)" stroke-width="1" opacity="0.3333333333333333" d="M 1.5 53 L 1.5 54 L 1.5 53 Z " /><path fill="rgb(0,0,0)" stroke="rgb(0,0,0)" stroke-width="1" opacity="0.3333333333333333" d="M 254.5 53 L 254.5 54 L 254.5 53 Z " /><path fill="rgb(0,0,0)" stroke="rgb(0,0,0)" stroke-width="1" opacity="0.3333333333333333" d="M 0.5 57 L 0.5 58 L 0.5 57 Z " /><path fill="rgb(0,0,0)" stroke="rgb(0,0,0)" stroke-width="1" opacity="0.3333333333333333" d="M 255.5 57 L 255.5 58 L 255.5 57 Z " /><path fill="rgb(0,0,0)" stroke="rgb(0,0,0)" stroke-width="1" opacity="0.3333333333333333" d="M 21.5 107 L 22 224.5 L 21 224.5 L 21.5 107 Z " /><path fill="rgb(0,0,0)" stroke="rgb(0,0,0)" stroke-width="1" opacity="0.3333333333333333" d="M 234.5 107 L 235 224.5 L 234 224.5 L 234.5 107 Z " /><path fill="rgb(0,0,0)" stroke="rgb(0,0,0)" stroke-width="1" opacity="0.3333333333333333" d="M 177.5 130 L 180 130.5 L 177.5 131 L 177.5 130 Z " /><path fill="rgb(0,0,0)" stroke="rgb(0,0,0)" stroke-width="1" opacity="0.3333333333333333" d="M 174.5 131 L 174.5 132 L 174.5 131 Z " /><path fill="rgb(0,0,0)" stroke="rgb(0,0,0)" stroke-width="1" opacity="0.3333333333333333" d="M 172.5 132 L 172.5 133 L 172.5 132 Z " /><path fill="rgb(0,0,0)" stroke="rgb(0,0,0)" stroke-width="1" opacity="0.3333333333333333" d="M 189.5 140 L 190 142.5 L 189 142.5 L 189.5 140 Z " /><path fill="rgb(0,0,0)" stroke="rgb(0,0,0)" stroke-width="1" opacity="0.3333333333333333" d="M 188.5 145 L 188.5 146 L 188.5 145 Z " /><path fill="rgb(0,0,0)" stroke="rgb(0,0,0)" stroke-width="1" opacity="0.3333333333333333" d="M 187.5 147 L 187.5 148 L 187.5 147 Z " /><path fill="rgb(0,0,0)" stroke="rgb(0,0,0)" stroke-width="1" opacity="0.3333333333333333" d="M 84.5 152 L 84.5 153 L 84.5 152 Z " /><path fill="rgb(0,0,0)" stroke="rgb(0,0,0)" stroke-width="1" opacity="0.3333333333333333" d="M 91.5 152 L 91.5 153 L 91.5 152 Z " /><path fill="rgb(0,0,0)" stroke="rgb(0,0,0)" stroke-width="1" opacity="0.3333333333333333" d="M 82.5 153 L 82.5 154 L 82.5 153 Z " /><path fill="rgb(0,0,0)" stroke="rgb(0,0,0)" stroke-width="1" opacity="0.3333333333333333" d="M 93.5 153 L 93.5 154 L 93.5 153 Z " /><path fill="rgb(0,0,0)" stroke="rgb(0,0,0)" stroke-width="1" opacity="0.3333333333333333" d="M 78.5 157 L 78.5 158 L 78.5 157 Z " /><path fill="rgb(0,0,0)" stroke="rgb(0,0,0)" stroke-width="1" opacity="0.3333333333333333" d="M 97.5 157 Q 100 158 98.5 159 Q 96 158 97.5 157 Z " /><path fill="rgb(0,0,0)" stroke="rgb(0,0,0)" stroke-width="1" opacity="0.3333333333333333" d="M 77.5 160 L 77.5 161 L 77.5 160 Z " /><path fill="rgb(0,0,0)" stroke="rgb(0,0,0)" stroke-width="1" opacity="0.3333333333333333" d="M 100.5 161 L 100.5 162 L 100.5 161 Z " /><path fill="rgb(0,0,0)" stroke="rgb(0,0,0)" stroke-width="1" opacity="0.3333333333333333" d="M 77.5 165 L 77.5 166 L 77.5 165 Z " /><path fill="rgb(0,0,0)" stroke="rgb(0,0,0)" stroke-width="1" opacity="0.3333333333333333" d="M 103.5 165 L 103.5 166 L 103.5 165 Z " /><path fill="rgb(0,0,0)" stroke="rgb(0,0,0)" stroke-width="1" opacity="0.3333333333333333" d="M 79.5 169 L 79.5 170 L 79.5 169 Z " /><path fill="rgb(0,0,0)" stroke="rgb(0,0,0)" stroke-width="1" opacity="0.3333333333333333" d="M 106.5 169 L 106.5 170 L 106.5 169 Z " /><path fill="rgb(0,0,0)" stroke="rgb(0,0,0)" stroke-width="1" opacity="0.3333333333333333" d="M 108.5 172 Q 111 173 109.5 174 Q 107 173 108.5 172 Z " /><path fill="rgb(0,0,0)" stroke="rgb(0,0,0)" stroke-width="1" opacity="0.3333333333333333" d="M 82.5 173 L 82.5 174 L 82.5 173 Z " /><path fill="rgb(0,0,0)" stroke="rgb(0,0,0)" stroke-width="1" opacity="0.3333333333333333" d="M 111.5 176 L 111.5 177 L 111.5 176 Z " /><path fill="rgb(0,0,0)" stroke="rgb(0,0,0)" stroke-width="1" opacity="0.3333333333333333" d="M 85.5 177 L 85.5 178 L 85.5 177 Z " /><path fill="rgb(0,0,0)" stroke="rgb(0,0,0)" stroke-width="1" opacity="0.3333333333333333" d="M 87.5 180 Q 90 181 88.5 182 Q 86 181 87.5 180 Z " /><path fill="rgb(0,0,0)" stroke="rgb(0,0,0)" stroke-width="1" opacity="0.3333333333333333" d="M 114.5 180 L 114.5 181 L 114.5 180 Z " /><path fill="rgb(0,0,0)" stroke="rgb(0,0,0)" stroke-width="1" opacity="0.3333333333333333" d="M 90.5 184 L 90.5 185 L 90.5 184 Z " /><path fill="rgb(0,0,0)" stroke="rgb(0,0,0)" stroke-width="1" opacity="0.3333333333333333" d="M 117.5 184 L 117.5 185 L 117.5 184 Z " /><path fill="rgb(0,0,0)" stroke="rgb(0,0,0)" stroke-width="1" opacity="0.3333333333333333" d="M 93.5 188 L 93.5 189 L 93.5 188 Z " /><path fill="rgb(0,0,0)" stroke="rgb(0,0,0)" stroke-width="1" opacity="0.3333333333333333" d="M 96.5 192 L 96.5 193 L 96.5 192 Z " /><path fill="rgb(0,0,0)" stroke="rgb(0,0,0)" stroke-width="1" opacity="0.3333333333333333" d="M 98.5 195 Q 101 196 99.5 197 Q 97 196 98.5 195 Z " /><path fill="rgb(0,0,0)" stroke="rgb(0,0,0)" stroke-width="1" opacity="0.3333333333333333" d="M 101.5 199 L 101.5 200 L 101.5 199 Z " /><path fill="rgb(0,0,0)" stroke="rgb(0,0,0)" stroke-width="1" opacity="0.3333333333333333" d="M 104.5 203 L 104.5 204 L 104.5 203 Z " /><path fill="rgb(0,0,0)" stroke="rgb(0,0,0)" stroke-width="1" opacity="0.3333333333333333" d="M 107.5 207 L 107.5 208 L 107.5 207 Z " /><path fill="rgb(0,0,0)" stroke="rgb(0,0,0)" stroke-width="1" opacity="0.3333333333333333" d="M 123.5 211 L 123.5 212 L 123.5 211 Z " /><path fill="rgb(0,0,0)" stroke="rgb(0,0,0)" stroke-width="1" opacity="0.3333333333333333" d="M 121.5 212 L 121.5 213 L 121.5 212 Z " /><path fill="rgb(0,0,0)" stroke="rgb(0,0,0)" stroke-width="1" opacity="0.3333333333333333" d="M 116.5 213 L 119 213.5 L 116.5 214 L 116.5 213 Z " /><path fill="rgb(0,0,0)" stroke="rgb(0,0,0)" stroke-width="1" opacity="0.3333333333333333" d="M 22.5 228 L 22.5 229 L 22.5 228 Z " /><path fill="rgb(0,0,0)" stroke="rgb(0,0,0)" stroke-width="1" opacity="0.3333333333333333" d="M 233.5 228 L 233.5 229 L 233.5 228 Z " /><path fill="rgb(0,0,0)" stroke="rgb(0,0,0)" stroke-width="1" opacity="0.3333333333333333" d="M 0.5 230 L 0.5 231 L 0.5 230 Z " /><path fill="rgb(0,0,0)" stroke="rgb(0,0,0)" stroke-width="1" opacity="0.3333333333333333" d="M 255.5 230 L 255.5 231 L 255.5 230 Z " /><path fill="rgb(0,0,0)" stroke="rgb(0,0,0)" stroke-width="1" opacity="0.3333333333333333" d="M 24.5 231 L 24.5 232 L 24.5 231 Z " /><path fill="rgb(0,0,0)" stroke="rgb(0,0,0)" stroke-width="1" opacity="0.3333333333333333" d="M 231.5 231 L 231.5 232 L 231.5 231 Z " /><path fill="rgb(0,0,0)" stroke="rgb(0,0,0)" stroke-width="1" opacity="0.3333333333333333" d="M 27.5 233 L 27.5 234 L 27.5 233 Z " /><path fill="rgb(0,0,0)" stroke="rgb(0,0,0)" stroke-width="1" opacity="0.3333333333333333" d="M 228.5 233 L 228.5 234 L 228.5 233 Z " /><path fill="rgb(0,0,0)" stroke="rgb(0,0,0)" stroke-width="1" opacity="0.3333333333333333" d="M 1.5 234 L 1.5 235 L 1.5 234 Z " /><path fill="rgb(0,0,0)" stroke="rgb(0,0,0)" stroke-width="1" opacity="0.3333333333333333" d="M 31.5 234 L 225 234.5 L 31.5 235 L 31.5 234 Z " /><path fill="rgb(0,0,0)" stroke="rgb(0,0,0)" stroke-width="1" opacity="0.3333333333333333" d="M 254.5 234 L 254.5 235 L 254.5 234 Z " /><path fill="rgb(0,0,0)" stroke="rgb(0,0,0)" stroke-width="1" opacity="0.3333333333333333" d="M 2.5 236 L 2.5 237 L 2.5 236 Z " /><path fill="rgb(0,0,0)" stroke="rgb(0,0,0)" stroke-width="1" opacity="0.3333333333333333" d="M 253.5 236 L 253.5 237 L 253.5 236 Z " /><path fill="rgb(0,0,0)" stroke="rgb(0,0,0)" stroke-width="1" opacity="0.3333333333333333" d="M 252.5 238 L 252.5 239 L 252.5 238 Z " /><path fill="rgb(0,0,0)" stroke="rgb(0,0,0)" stroke-width="1" opacity="0.3333333333333333" d="M 4.5 240 L 4.5 241 L 4.5 240 Z " /><path fill="rgb(0,0,0)" stroke="rgb(0,0,0)" stroke-width="1" opacity="0.3333333333333333" d="M 251.5 240 L 251.5 241 L 251.5 240 Z " /><path fill="rgb(0,0,0)" stroke="rgb(0,0,0)" stroke-width="1" opacity="0.3333333333333333" d="M 6.5 243 L 6.5 244 L 6.5 243 Z " /><path fill="rgb(0,0,0)" stroke="rgb(0,0,0)" stroke-width="1" opacity="0.3333333333333333" d="M 249.5 243 L 249.5 244 L 249.5 243 Z " /><path fill="rgb(0,0,0)" stroke="rgb(0,0,0)" stroke-width="1" opacity="0.3333333333333333" d="M 12.5 249 L 12.5 250 L 12.5 249 Z " /><path fill="rgb(0,0,0)" stroke="rgb(0,0,0)" stroke-width="1" opacity="0.3333333333333333" d="M 243.5 249 L 243.5 250 L 243.5 249 Z " /><path fill="rgb(0,0,0)" stroke="rgb(0,0,0)" stroke-width="1" opacity="0.3333333333333333" d="M 15.5 251 L 15.5 252 L 15.5 251 Z " /><path fill="rgb(0,0,0)" stroke="rgb(0,0,0)" stroke-width="1" opacity="0.3333333333333333" d="M 240.5 251 L 240.5 252 L 240.5 251 Z " /><path fill="rgb(0,0,0)" stroke="rgb(0,0,0)" stroke-width="1" opacity="0.3333333333333333" d="M 238.5 252 L 238.5 253 L 238.5 252 Z " /><path fill="rgb(0,0,0)" stroke="rgb(0,0,0)" stroke-width="1" opacity="0.3333333333333333" d="M 19.5 253 L 19.5 254 L 19.5 253 Z " /><path fill="rgb(0,0,0)" stroke="rgb(0,0,0)" stroke-width="1" opacity="0.3333333333333333" d="M 236.5 253 L 236.5 254 L 236.5 253 Z " /><path fill="rgb(0,0,0)" stroke="rgb(0,0,0)" stroke-width="1" opacity="0.3333333333333333" d="M 21.5 254 L 21.5 255 L 21.5 254 Z " /><path fill="rgb(0,0,0)" stroke="rgb(0,0,0)" stroke-width="1" opacity="0.3333333333333333" d="M 234.5 254 L 234.5 255 L 234.5 254 Z " /><path fill="rgb(0,0,0)" stroke="rgb(0,0,0)" stroke-width="1" opacity="0.3333333333333333" d="M 25.5 255 L 25.5 256 L 25.5 255 Z " /><path fill="rgb(0,0,0)" stroke="rgb(0,0,0)" stroke-width="1" opacity="0.3333333333333333" d="M 230.5 255 L 230.5 256 L 230.5 255 Z " /><path fill="rgb(0,0,0)" stroke="rgb(0,0,0)" stroke-width="1" opacity="0.6235294117647059" d="M 50.5 0 L 50.5 1 L 50.5 0 Z " /><path fill="rgb(0,0,0)" stroke="rgb(0,0,0)" stroke-width="1" opacity="0.6235294117647059" d="M 66.5 0 L 66.5 1 L 66.5 0 Z " /><path fill="rgb(0,0,0)" stroke="rgb(0,0,0)" stroke-width="1" opacity="0.6235294117647059" d="M 189.5 0 L 189.5 1 L 189.5 0 Z " /><path fill="rgb(0,0,0)" stroke="rgb(0,0,0)" stroke-width="1" opacity="0.6235294117647059" d="M 205.5 0 L 205.5 1 L 205.5 0 Z " /><path fill="rgb(0,0,0)" stroke="rgb(0,0,0)" stroke-width="1" opacity="0.6235294117647059" d="M 70.5 2 L 70.5 3 L 70.5 2 Z " /><path fill="rgb(0,0,0)" stroke="rgb(0,0,0)" stroke-width="1" opacity="0.6235294117647059" d="M 185.5 2 L 185.5 3 L 185.5 2 Z " /><path fill="rgb(0,0,0)" stroke="rgb(0,0,0)" stroke-width="1" opacity="0.6235294117647059" d="M 209.5 2 Q 212 3 210.5 4 Q 208 3 209.5 2 Z " /><path fill="rgb(0,0,0)" stroke="rgb(0,0,0)" stroke-width="1" opacity="0.6235294117647059" d="M 45.5 3 L 45.5 4 L 45.5 3 Z " /><path fill="rgb(0,0,0)" stroke="rgb(0,0,0)" stroke-width="1" opacity="0.6235294117647059" d="M 72.5 4 L 72.5 5 L 72.5 4 Z " /><path fill="rgb(0,0,0)" stroke="rgb(0,0,0)" stroke-width="1" opacity="0.6235294117647059" d="M 183.5 4 L 183.5 5 L 183.5 4 Z " /><path fill="rgb(0,0,0)" stroke="rgb(0,0,0)" stroke-width="1" opacity="0.6235294117647059" d="M 74.5 9 L 75 31.5 L 74 31.5 L 74.5 9 Z " /><path fill="rgb(0,0,0)" stroke="rgb(0,0,0)" stroke-width="1" opacity="0.6235294117647059" d="M 181.5 9 L 182 31.5 L 181 31.5 L 181.5 9 Z " /><path fill="rgb(0,0,0)" stroke="rgb(0,0,0)" stroke-width="1" opacity="0.6235294117647059" d="M 26.5 32 L 28 32.5 L 26.5 33 L 26.5 32 Z " /><path fill="rgb(0,0,0)" stroke="rgb(0,0,0)" stroke-width="1" opacity="0.6235294117647059" d="M 228.5 32 L 230 32.5 L 228.5 33 L 228.5 32 Z " /><path fill="rgb(0,0,0)" stroke="rgb(0,0,0)" stroke-width="1" opacity="0.6235294117647059" d="M 22.5 33 L 22.5 34 L 22.5 33 Z " /><path fill="rgb(0,0,0)" stroke="rgb(0,0,0)" stroke-width="1" opacity="0.6235294117647059" d="M 233.5 33 L 233.5 34 L 233.5 33 Z " /><path fill="rgb(0,0,0)" stroke="rgb(0,0,0)" stroke-width="1" opacity="0.6235294117647059" d="M 17.5 35 L 17.5 36 L 17.5 35 Z " /><path fill="rgb(0,0,0)" stroke="rgb(0,0,0)" stroke-width="1" opacity="0.6235294117647059" d="M 238.5 35 L 238.5 36 L 238.5 35 Z " /><path fill="rgb(0,0,0)" stroke="rgb(0,0,0)" stroke-width="1" opacity="0.6235294117647059" d="M 14.5 37 L 14.5 38 L 14.5 37 Z " /><path fill="rgb(0,0,0)" stroke="rgb(0,0,0)" stroke-width="1" opacity="0.6235294117647059" d="M 241.5 37 L 241.5 38 L 241.5 37 Z " /><path fill="rgb(0,0,0)" stroke="rgb(0,0,0)" stroke-width="1" opacity="0.6235294117647059" d="M 11.5 39 L 12 39.5 L 7.5 44 L 7 43.5 L 11.5 39 Z " /><path fill="rgb(0,0,0)" stroke="rgb(0,0,0)" stroke-width="1" opacity="0.6235294117647059" d="M 244.5 39 L 249 43.5 L 248.5 44 L 244 39.5 L 244.5 39 Z " /><path fill="rgb(0,0,0)" stroke="rgb(0,0,0)" stroke-width="1" opacity="0.6235294117647059" d="M 5.5 46 L 5.5 47 L 5.5 46 Z " /><path fill="rgb(0,0,0)" stroke="rgb(0,0,0)" stroke-width="1" opacity="0.6235294117647059" d="M 250.5 46 L 250.5 47 L 250.5 46 Z " /><path fill="rgb(0,0,0)" stroke="rgb(0,0,0)" stroke-width="1" opacity="0.6235294117647059" d="M 3.5 49 L 3.5 50 L 3.5 49 Z " /><path fill="rgb(0,0,0)" stroke="rgb(0,0,0)" stroke-width="1" opacity="0.6235294117647059" d="M 252.5 49 L 252.5 50 L 252.5 49 Z " /><path fill="rgb(0,0,0)" stroke="rgb(0,0,0)" stroke-width="1" opacity="0.6235294117647059" d="M 1.5 54 L 1.5 55 L 1.5 54 Z " /><path fill="rgb(0,0,0)" stroke="rgb(0,0,0)" stroke-width="1" opacity="0.6235294117647059" d="M 254.5 54 L 254.5 55 L 254.5 54 Z " /><path fill="rgb(0,0,0)" stroke="rgb(0,0,0)" stroke-width="1" opacity="0.6235294117647059" d="M 0.5 58 L 1 59.5 L 0 59.5 L 0.5 58 Z " /><path fill="rgb(0,0,0)" stroke="rgb(0,0,0)" stroke-width="1" opacity="0.6235294117647059" d="M 255.5 58 L 256 59.5 L 255 59.5 L 255.5 58 Z " /><path fill="rgb(0,0,0)" stroke="rgb(0,0,0)" stroke-width="1" opacity="0.6235294117647059" d="M 182.5 131 L 182.5 132 L 182.5 131 Z " /><path fill="rgb(0,0,0)" stroke="rgb(0,0,0)" stroke-width="1" opacity="0.6235294117647059" d="M 184.5 132 L 188 135.5 L 187.5 136 L 184 132.5 L 184.5 132 Z " /><path fill="rgb(0,0,0)" stroke="rgb(0,0,0)" stroke-width="1" opacity="0.6235294117647059" d="M 171.5 133 L 172 133.5 L 119.5 186 L 119 185.5 L 171.5 133 Z " /><path fill="rgb(0,0,0)" stroke="rgb(0,0,0)" stroke-width="1" opacity="0.6235294117647059" d="M 188.5 137 L 188.5 138 L 188.5 137 Z " /><path fill="rgb(0,0,0)" stroke="rgb(0,0,0)" stroke-width="1" opacity="0.6235294117647059" d="M 186.5 148 L 187 148.5 L 124.5 211 L 124 210.5 L 186.5 148 Z " /><path fill="rgb(0,0,0)" stroke="rgb(0,0,0)" stroke-width="1" opacity="0.6235294117647059" d="M 85.5 152 L 85.5 153 L 85.5 152 Z " /><path fill="rgb(0,0,0)" stroke="rgb(0,0,0)" stroke-width="1" opacity="0.6235294117647059" d="M 90.5 152 L 90.5 153 L 90.5 152 Z " /><path fill="rgb(0,0,0)" stroke="rgb(0,0,0)" stroke-width="1" opacity="0.6235294117647059" d="M 81.5 154 L 81.5 155 L 81.5 154 Z " /><path fill="rgb(0,0,0)" stroke="rgb(0,0,0)" stroke-width="1" opacity="0.6235294117647059" d="M 94.5 154 L 94.5 155 L 94.5 154 Z " /><path fill="rgb(0,0,0)" stroke="rgb(0,0,0)" stroke-width="1" opacity="0.6235294117647059" d="M 79.5 156 L 79.5 157 L 79.5 156 Z " /><path fill="rgb(0,0,0)" stroke="rgb(0,0,0)" stroke-width="1" opacity="0.6235294117647059" d="M 96.5 156 L 96.5 157 L 96.5 156 Z " /><path fill="rgb(0,0,0)" stroke="rgb(0,0,0)" stroke-width="1" opacity="0.6235294117647059" d="M 99.5 160 L 99.5 161 L 99.5 160 Z " /><path fill="rgb(0,0,0)" stroke="rgb(0,0,0)" stroke-width="1" opacity="0.6235294117647059" d="M 77.5 161 L 78 164.5 L 77 164.5 L 77.5 161 Z " /><path fill="rgb(0,0,0)" stroke="rgb(0,0,0)" stroke-width="1" opacity="0.6235294117647059" d="M 102.5 164 L 102.5 165 L 102.5 164 Z " /><path fill="rgb(0,0,0)" stroke="rgb(0,0,0)" stroke-width="1" opacity="0.6235294117647059" d="M 78.5 167 L 78.5 168 L 78.5 167 Z " /><path fill="rgb(0,0,0)" stroke="rgb(0,0,0)" stroke-width="1" opacity="0.6235294117647059" d="M 104.5 167 Q 107 168 105.5 169 Q 103 168 104.5 167 Z " /><path fill="rgb(0,0,0)" stroke="rgb(0,0,0)" stroke-width="1" opacity="0.6235294117647059" d="M 80.5 170 Q 83 171 81.5 172 Q 79 171 80.5 170 Z " /><path fill="rgb(0,0,0)" stroke="rgb(0,0,0)" stroke-width="1" opacity="0.6235294117647059" d="M 107.5 171 L 107.5 172 L 107.5 171 Z " /><path fill="rgb(0,0,0)" stroke="rgb(0,0,0)" stroke-width="1" opacity="0.6235294117647059" d="M 83.5 174 L 83.5 175 L 83.5 174 Z " /><path fill="rgb(0,0,0)" stroke="rgb(0,0,0)" stroke-width="1" opacity="0.6235294117647059" d="M 110.5 175 L 110.5 176 L 110.5 175 Z " /><path fill="rgb(0,0,0)" stroke="rgb(0,0,0)" stroke-width="1" opacity="0.6235294117647059" d="M 86.5 178 L 86.5 179 L 86.5 178 Z " /><path fill="rgb(0,0,0)" stroke="rgb(0,0,0)" stroke-width="1" opacity="0.6235294117647059" d="M 113.5 179 L 113.5 180 L 113.5 179 Z " /><path fill="rgb(0,0,0)" stroke="rgb(0,0,0)" stroke-width="1" opacity="0.6235294117647059" d="M 89.5 182 L 89.5 183 L 89.5 182 Z " /><path fill="rgb(0,0,0)" stroke="rgb(0,0,0)" stroke-width="1" opacity="0.6235294117647059" d="M 115.5 182 Q 118 183 116.5 184 Q 114 183 115.5 182 Z " /><path fill="rgb(0,0,0)" stroke="rgb(0,0,0)" stroke-width="1" opacity="0.6235294117647059" d="M 91.5 185 Q 94 186 92.5 187 Q 90 186 91.5 185 Z " /><path fill="rgb(0,0,0)" stroke="rgb(0,0,0)" stroke-width="1" opacity="0.6235294117647059" d="M 94.5 189 L 94.5 190 L 94.5 189 Z " /><path fill="rgb(0,0,0)" stroke="rgb(0,0,0)" stroke-width="1" opacity="0.6235294117647059" d="M 97.5 193 L 97.5 194 L 97.5 193 Z " /><path fill="rgb(0,0,0)" stroke="rgb(0,0,0)" stroke-width="1" opacity="0.6235294117647059" d="M 100.5 197 L 100.5 198 L 100.5 197 Z " /><path fill="rgb(0,0,0)" stroke="rgb(0,0,0)" stroke-width="1" opacity="0.6235294117647059" d="M 102.5 200 Q 105 201 103.5 202 Q 101 201 102.5 200 Z " /><path fill="rgb(0,0,0)" stroke="rgb(0,0,0)" stroke-width="1" opacity="0.6235294117647059" d="M 105.5 204 L 105.5 205 L 105.5 204 Z " /><path fill="rgb(0,0,0)" stroke="rgb(0,0,0)" stroke-width="1" opacity="0.6235294117647059" d="M 108.5 208 Q 111 209 109.5 210 Q 107 209 108.5 208 Z " /><path fill="rgb(0,0,0)" stroke="rgb(0,0,0)" stroke-width="1" opacity="0.6235294117647059" d="M 111.5 211 L 111.5 212 L 111.5 211 Z " /><path fill="rgb(0,0,0)" stroke="rgb(0,0,0)" stroke-width="1" opacity="0.6235294117647059" d="M 113.5 212 L 113.5 213 L 113.5 212 Z " /><path fill="rgb(0,0,0)" stroke="rgb(0,0,0)" stroke-width="1" opacity="0.6235294117647059" d="M 21.5 225 L 22 226.5 L 21 226.5 L 21.5 225 Z " /><path fill="rgb(0,0,0)" stroke="rgb(0,0,0)" stroke-width="1" opacity="0.6235294117647059" d="M 234.5 225 L 235 226.5 L 234 226.5 L 234.5 225 Z " /><path fill="rgb(0,0,0)" stroke="rgb(0,0,0)" stroke-width="1" opacity="0.6235294117647059" d="M 0.5 228 L 1 229.5 L 0 229.5 L 0.5 228 Z " /><path fill="rgb(0,0,0)" stroke="rgb(0,0,0)" stroke-width="1" opacity="0.6235294117647059" d="M 255.5 228 L 256 229.5 L 255 229.5 L 255.5 228 Z " /><path fill="rgb(0,0,0)" stroke="rgb(0,0,0)" stroke-width="1" opacity="0.6235294117647059" d="M 23.5 230 L 23.5 231 L 23.5 230 Z " /><path fill="rgb(0,0,0)" stroke="rgb(0,0,0)" stroke-width="1" opacity="0.6235294117647059" d="M 232.5 230 L 232.5 231 L 232.5 230 Z " /><path fill="rgb(0,0,0)" stroke="rgb(0,0,0)" stroke-width="1" opacity="0.6235294117647059" d="M 25.5 232 L 25.5 233 L 25.5 232 Z " /><path fill="rgb(0,0,0)" stroke="rgb(0,0,0)" stroke-width="1" opacity="0.6235294117647059" d="M 230.5 232 L 230.5 233 L 230.5 232 Z " /><path fill="rgb(0,0,0)" stroke="rgb(0,0,0)" stroke-width="1" opacity="0.6235294117647059" d="M 1.5 233 L 1.5 234 L 1.5 233 Z " /><path fill="rgb(0,0,0)" stroke="rgb(0,0,0)" stroke-width="1" opacity="0.6235294117647059" d="M 254.5 233 L 254.5 234 L 254.5 233 Z " /><path fill="rgb(0,0,0)" stroke="rgb(0,0,0)" stroke-width="1" opacity="0.6235294117647059" d="M 29.5 234 L 31 234.5 L 29.5 235 L 29.5 234 Z " /><path fill="rgb(0,0,0)" stroke="rgb(0,0,0)" stroke-width="1" opacity="0.6235294117647059" d="M 225.5 234 L 227 234.5 L 225.5 235 L 225.5 234 Z " /><path fill="rgb(0,0,0)" stroke="rgb(0,0,0)" stroke-width="1" opacity="0.6235294117647059" d="M 3.5 238 L 3.5 239 L 3.5 238 Z " /><path fill="rgb(0,0,0)" stroke="rgb(0,0,0)" stroke-width="1" opacity="0.6235294117647059" d="M 5.5 241 L 5.5 242 L 5.5 241 Z " /><path fill="rgb(0,0,0)" stroke="rgb(0,0,0)" stroke-width="1" opacity="0.6235294117647059" d="M 250.5 241 L 250.5 242 L 250.5 241 Z " /><path fill="rgb(0,0,0)" stroke="rgb(0,0,0)" stroke-width="1" opacity="0.6235294117647059" d="M 7.5 244 L 12 248.5 L 11.5 249 L 7 244.5 L 7.5 244 Z " /><path fill="rgb(0,0,0)" stroke="rgb(0,0,0)" stroke-width="1" opacity="0.6235294117647059" d="M 248.5 244 L 249 244.5 L 244.5 249 L 244 248.5 L 248.5 244 Z " /><path fill="rgb(0,0,0)" stroke="rgb(0,0,0)" stroke-width="1" opacity="0.6235294117647059" d="M 14.5 250 L 14.5 251 L 14.5 250 Z " /><path fill="rgb(0,0,0)" stroke="rgb(0,0,0)" stroke-width="1" opacity="0.6235294117647059" d="M 241.5 250 L 241.5 251 L 241.5 250 Z " /><path fill="rgb(0,0,0)" stroke="rgb(0,0,0)" stroke-width="1" opacity="0.6235294117647059" d="M 17.5 252 L 17.5 253 L 17.5 252 Z " /><path fill="rgb(0,0,0)" stroke="rgb(0,0,0)" stroke-width="1" opacity="0.6235294117647059" d="M 22.5 254 L 22.5 255 L 22.5 254 Z " /><path fill="rgb(0,0,0)" stroke="rgb(0,0,0)" stroke-width="1" opacity="0.6235294117647059" d="M 233.5 254 L 233.5 255 L 233.5 254 Z " /><path fill="rgb(0,0,0)" stroke="rgb(0,0,0)" stroke-width="1" opacity="0.6235294117647059" d="M 26.5 255 L 28 255.5 L 26.5 256 L 26.5 255 Z " /><path fill="rgb(0,0,0)" stroke="rgb(0,0,0)" stroke-width="1" opacity="0.6235294117647059" d="M 228.5 255 L 230 255.5 L 228.5 256 L 228.5 255 Z " /></svg>